<mxfile host="app.diagrams.net" modified="2023-07-26T13:13:56.878Z" agent="Mozilla/5.0 (Windows NT 10.0; Win64; x64) AppleWebKit/537.36 (KHTML, like Gecko) Chrome/114.0.0.0 YaBrowser/23.7.0.2526 Yowser/2.5 Safari/537.36" etag="QH2a6SHsc5YwizDRXd2t" version="21.6.5" type="device">
  <diagram name="Страница 1" id="H8o3sT71bYcOFHJpAoUS">
    <mxGraphModel dx="1126" dy="719" grid="1" gridSize="10" guides="1" tooltips="1" connect="1" arrows="1" fold="1" page="1" pageScale="1" pageWidth="827" pageHeight="1169" math="0" shadow="0">
      <root>
        <mxCell id="0" />
        <mxCell id="1" parent="0" />
        <mxCell id="VbY37NII3IDqUdcZhNsP-4" style="edgeStyle=orthogonalEdgeStyle;rounded=0;orthogonalLoop=1;jettySize=auto;html=1;exitX=0.5;exitY=1;exitDx=0;exitDy=0;entryX=0.5;entryY=0;entryDx=0;entryDy=0;" parent="1" source="X1NGosuQr4oLsFRzas8Q-5" target="VbY37NII3IDqUdcZhNsP-1" edge="1">
          <mxGeometry relative="1" as="geometry" />
        </mxCell>
        <mxCell id="X1NGosuQr4oLsFRzas8Q-5" value="originalArray = { &quot;День&quot;, &quot;Ночь&quot;, &quot;Три&quot;, &quot;Пять&quot;, &quot;Лак&quot;, &quot;Краска&quot;, &quot;Бык&quot;, &quot;Як&quot;, &quot;Зеленка&quot;, &quot;Йод&quot; };&lt;br&gt;&lt;br&gt;ArrayLength = 0&lt;br&gt;temporary = 0&lt;br&gt;i = 0" style="rounded=0;whiteSpace=wrap;html=1;" parent="1" vertex="1">
          <mxGeometry x="200" y="90" width="310" height="110" as="geometry" />
        </mxCell>
        <mxCell id="5gluB8Lm6YsT1ejz7x0Q-4" style="edgeStyle=orthogonalEdgeStyle;rounded=0;orthogonalLoop=1;jettySize=auto;html=1;exitX=1;exitY=0.5;exitDx=0;exitDy=0;entryX=0;entryY=0.5;entryDx=0;entryDy=0;" parent="1" source="X1NGosuQr4oLsFRzas8Q-11" target="VbY37NII3IDqUdcZhNsP-1" edge="1">
          <mxGeometry relative="1" as="geometry" />
        </mxCell>
        <mxCell id="X1NGosuQr4oLsFRzas8Q-11" value="i = i + 1" style="rounded=0;whiteSpace=wrap;html=1;" parent="1" vertex="1">
          <mxGeometry x="40" y="240" width="140" height="60" as="geometry" />
        </mxCell>
        <mxCell id="VbY37NII3IDqUdcZhNsP-6" style="edgeStyle=orthogonalEdgeStyle;rounded=0;orthogonalLoop=1;jettySize=auto;html=1;exitX=0.5;exitY=1;exitDx=0;exitDy=0;entryX=0.5;entryY=0;entryDx=0;entryDy=0;" parent="1" source="VbY37NII3IDqUdcZhNsP-1" target="VbY37NII3IDqUdcZhNsP-8" edge="1">
          <mxGeometry relative="1" as="geometry">
            <mxPoint x="355" y="360" as="targetPoint" />
          </mxGeometry>
        </mxCell>
        <mxCell id="VbY37NII3IDqUdcZhNsP-7" value="Yes" style="edgeLabel;html=1;align=center;verticalAlign=middle;resizable=0;points=[];" parent="VbY37NII3IDqUdcZhNsP-6" vertex="1" connectable="0">
          <mxGeometry x="-0.2" y="-1" relative="1" as="geometry">
            <mxPoint as="offset" />
          </mxGeometry>
        </mxCell>
        <mxCell id="5gluB8Lm6YsT1ejz7x0Q-6" style="edgeStyle=orthogonalEdgeStyle;rounded=0;orthogonalLoop=1;jettySize=auto;html=1;exitX=1;exitY=0.5;exitDx=0;exitDy=0;entryX=0;entryY=0.5;entryDx=0;entryDy=0;" parent="1" source="VbY37NII3IDqUdcZhNsP-1" target="5gluB8Lm6YsT1ejz7x0Q-5" edge="1">
          <mxGeometry relative="1" as="geometry" />
        </mxCell>
        <mxCell id="5gluB8Lm6YsT1ejz7x0Q-7" value="No" style="edgeLabel;html=1;align=center;verticalAlign=middle;resizable=0;points=[];" parent="5gluB8Lm6YsT1ejz7x0Q-6" vertex="1" connectable="0">
          <mxGeometry x="-0.2667" y="-1" relative="1" as="geometry">
            <mxPoint as="offset" />
          </mxGeometry>
        </mxCell>
        <mxCell id="VbY37NII3IDqUdcZhNsP-1" value="i &amp;lt; originalArray.Length" style="rhombus;whiteSpace=wrap;html=1;" parent="1" vertex="1">
          <mxGeometry x="230" y="220" width="250" height="100" as="geometry" />
        </mxCell>
        <mxCell id="VbY37NII3IDqUdcZhNsP-10" style="edgeStyle=orthogonalEdgeStyle;rounded=0;orthogonalLoop=1;jettySize=auto;html=1;exitX=0.5;exitY=1;exitDx=0;exitDy=0;entryX=0.5;entryY=0;entryDx=0;entryDy=0;" parent="1" source="VbY37NII3IDqUdcZhNsP-8" target="VbY37NII3IDqUdcZhNsP-9" edge="1">
          <mxGeometry relative="1" as="geometry" />
        </mxCell>
        <mxCell id="VbY37NII3IDqUdcZhNsP-11" value="Yes" style="edgeLabel;html=1;align=center;verticalAlign=middle;resizable=0;points=[];" parent="VbY37NII3IDqUdcZhNsP-10" vertex="1" connectable="0">
          <mxGeometry x="-0.3" y="-1" relative="1" as="geometry">
            <mxPoint as="offset" />
          </mxGeometry>
        </mxCell>
        <mxCell id="VbY37NII3IDqUdcZhNsP-8" value="temporary = originalArray[ i ].Length" style="rounded=0;whiteSpace=wrap;html=1;" parent="1" vertex="1">
          <mxGeometry x="230" y="340" width="250" height="60" as="geometry" />
        </mxCell>
        <mxCell id="VbY37NII3IDqUdcZhNsP-13" style="edgeStyle=orthogonalEdgeStyle;rounded=0;orthogonalLoop=1;jettySize=auto;html=1;exitX=0.5;exitY=1;exitDx=0;exitDy=0;entryX=0.5;entryY=0;entryDx=0;entryDy=0;" parent="1" source="VbY37NII3IDqUdcZhNsP-9" target="VbY37NII3IDqUdcZhNsP-12" edge="1">
          <mxGeometry relative="1" as="geometry" />
        </mxCell>
        <mxCell id="VbY37NII3IDqUdcZhNsP-14" value="Yes" style="edgeLabel;html=1;align=center;verticalAlign=middle;resizable=0;points=[];" parent="VbY37NII3IDqUdcZhNsP-13" vertex="1" connectable="0">
          <mxGeometry x="-0.3143" y="-1" relative="1" as="geometry">
            <mxPoint as="offset" />
          </mxGeometry>
        </mxCell>
        <mxCell id="5gluB8Lm6YsT1ejz7x0Q-2" style="edgeStyle=orthogonalEdgeStyle;rounded=0;orthogonalLoop=1;jettySize=auto;html=1;exitX=0;exitY=0.5;exitDx=0;exitDy=0;entryX=0.643;entryY=1.017;entryDx=0;entryDy=0;entryPerimeter=0;" parent="1" source="VbY37NII3IDqUdcZhNsP-9" target="X1NGosuQr4oLsFRzas8Q-11" edge="1">
          <mxGeometry relative="1" as="geometry" />
        </mxCell>
        <mxCell id="5gluB8Lm6YsT1ejz7x0Q-3" value="No" style="edgeLabel;html=1;align=center;verticalAlign=middle;resizable=0;points=[];" parent="5gluB8Lm6YsT1ejz7x0Q-2" vertex="1" connectable="0">
          <mxGeometry x="-0.553" y="-2" relative="1" as="geometry">
            <mxPoint as="offset" />
          </mxGeometry>
        </mxCell>
        <mxCell id="VbY37NII3IDqUdcZhNsP-9" value="temporary &amp;lt;= 3" style="rhombus;whiteSpace=wrap;html=1;" parent="1" vertex="1">
          <mxGeometry x="225" y="420" width="260" height="100" as="geometry" />
        </mxCell>
        <mxCell id="5gluB8Lm6YsT1ejz7x0Q-1" style="edgeStyle=orthogonalEdgeStyle;rounded=0;orthogonalLoop=1;jettySize=auto;html=1;exitX=0;exitY=0.5;exitDx=0;exitDy=0;entryX=0.25;entryY=1;entryDx=0;entryDy=0;" parent="1" source="VbY37NII3IDqUdcZhNsP-12" target="X1NGosuQr4oLsFRzas8Q-11" edge="1">
          <mxGeometry relative="1" as="geometry" />
        </mxCell>
        <mxCell id="VbY37NII3IDqUdcZhNsP-12" value="ArrayLength =&amp;nbsp;ArrayLength + 1" style="rounded=0;whiteSpace=wrap;html=1;" parent="1" vertex="1">
          <mxGeometry x="230" y="540" width="250" height="60" as="geometry" />
        </mxCell>
        <mxCell id="5gluB8Lm6YsT1ejz7x0Q-11" style="edgeStyle=orthogonalEdgeStyle;rounded=0;orthogonalLoop=1;jettySize=auto;html=1;exitX=0.5;exitY=1;exitDx=0;exitDy=0;entryX=0.5;entryY=0;entryDx=0;entryDy=0;" parent="1" source="5gluB8Lm6YsT1ejz7x0Q-5" target="5gluB8Lm6YsT1ejz7x0Q-10" edge="1">
          <mxGeometry relative="1" as="geometry" />
        </mxCell>
        <mxCell id="5gluB8Lm6YsT1ejz7x0Q-5" value="finishedArray = new string[ArrayLength]&lt;br&gt;index = 0&lt;br&gt;i = 0" style="rounded=0;whiteSpace=wrap;html=1;" parent="1" vertex="1">
          <mxGeometry x="560" y="240" width="250" height="60" as="geometry" />
        </mxCell>
        <mxCell id="5gluB8Lm6YsT1ejz7x0Q-13" style="edgeStyle=orthogonalEdgeStyle;rounded=0;orthogonalLoop=1;jettySize=auto;html=1;exitX=0.5;exitY=1;exitDx=0;exitDy=0;entryX=0.5;entryY=0;entryDx=0;entryDy=0;" parent="1" source="5gluB8Lm6YsT1ejz7x0Q-10" target="5gluB8Lm6YsT1ejz7x0Q-12" edge="1">
          <mxGeometry relative="1" as="geometry" />
        </mxCell>
        <mxCell id="5gluB8Lm6YsT1ejz7x0Q-33" value="Yes" style="edgeLabel;html=1;align=center;verticalAlign=middle;resizable=0;points=[];" parent="5gluB8Lm6YsT1ejz7x0Q-13" vertex="1" connectable="0">
          <mxGeometry x="-0.2" y="2" relative="1" as="geometry">
            <mxPoint as="offset" />
          </mxGeometry>
        </mxCell>
        <mxCell id="5gluB8Lm6YsT1ejz7x0Q-39" style="edgeStyle=orthogonalEdgeStyle;rounded=0;orthogonalLoop=1;jettySize=auto;html=1;exitX=0;exitY=0.5;exitDx=0;exitDy=0;entryX=1;entryY=0.5;entryDx=0;entryDy=0;" parent="1" source="5gluB8Lm6YsT1ejz7x0Q-10" target="5gluB8Lm6YsT1ejz7x0Q-38" edge="1">
          <mxGeometry relative="1" as="geometry" />
        </mxCell>
        <mxCell id="5gluB8Lm6YsT1ejz7x0Q-10" value="i &amp;lt; originalArray.Length" style="rhombus;whiteSpace=wrap;html=1;" parent="1" vertex="1">
          <mxGeometry x="550" y="330" width="270" height="100" as="geometry" />
        </mxCell>
        <mxCell id="5gluB8Lm6YsT1ejz7x0Q-19" style="edgeStyle=orthogonalEdgeStyle;rounded=0;orthogonalLoop=1;jettySize=auto;html=1;exitX=0.5;exitY=1;exitDx=0;exitDy=0;entryX=0.5;entryY=0;entryDx=0;entryDy=0;" parent="1" source="5gluB8Lm6YsT1ejz7x0Q-12" target="5gluB8Lm6YsT1ejz7x0Q-17" edge="1">
          <mxGeometry relative="1" as="geometry" />
        </mxCell>
        <mxCell id="5gluB8Lm6YsT1ejz7x0Q-12" value="temporary = originalArray[ i ].Length" style="rounded=0;whiteSpace=wrap;html=1;" parent="1" vertex="1">
          <mxGeometry x="560" y="460" width="250" height="60" as="geometry" />
        </mxCell>
        <mxCell id="5gluB8Lm6YsT1ejz7x0Q-22" style="edgeStyle=orthogonalEdgeStyle;rounded=0;orthogonalLoop=1;jettySize=auto;html=1;exitX=0.5;exitY=1;exitDx=0;exitDy=0;entryX=0.5;entryY=0;entryDx=0;entryDy=0;" parent="1" source="5gluB8Lm6YsT1ejz7x0Q-17" target="5gluB8Lm6YsT1ejz7x0Q-20" edge="1">
          <mxGeometry relative="1" as="geometry" />
        </mxCell>
        <mxCell id="5gluB8Lm6YsT1ejz7x0Q-23" value="Yes" style="edgeLabel;html=1;align=center;verticalAlign=middle;resizable=0;points=[];" parent="5gluB8Lm6YsT1ejz7x0Q-22" vertex="1" connectable="0">
          <mxGeometry x="-0.0667" relative="1" as="geometry">
            <mxPoint as="offset" />
          </mxGeometry>
        </mxCell>
        <mxCell id="5gluB8Lm6YsT1ejz7x0Q-29" style="edgeStyle=orthogonalEdgeStyle;rounded=0;orthogonalLoop=1;jettySize=auto;html=1;exitX=1;exitY=0.5;exitDx=0;exitDy=0;entryX=0.25;entryY=1;entryDx=0;entryDy=0;" parent="1" source="5gluB8Lm6YsT1ejz7x0Q-17" target="5gluB8Lm6YsT1ejz7x0Q-24" edge="1">
          <mxGeometry relative="1" as="geometry" />
        </mxCell>
        <mxCell id="5gluB8Lm6YsT1ejz7x0Q-31" value="No" style="edgeLabel;html=1;align=center;verticalAlign=middle;resizable=0;points=[];" parent="5gluB8Lm6YsT1ejz7x0Q-29" vertex="1" connectable="0">
          <mxGeometry x="-0.3185" y="-3" relative="1" as="geometry">
            <mxPoint as="offset" />
          </mxGeometry>
        </mxCell>
        <mxCell id="5gluB8Lm6YsT1ejz7x0Q-17" value="temporary &amp;lt;= 3" style="rhombus;whiteSpace=wrap;html=1;" parent="1" vertex="1">
          <mxGeometry x="555" y="550" width="260" height="100" as="geometry" />
        </mxCell>
        <mxCell id="5gluB8Lm6YsT1ejz7x0Q-32" style="edgeStyle=orthogonalEdgeStyle;rounded=0;orthogonalLoop=1;jettySize=auto;html=1;exitX=1;exitY=0.5;exitDx=0;exitDy=0;entryX=0.5;entryY=1;entryDx=0;entryDy=0;" parent="1" source="5gluB8Lm6YsT1ejz7x0Q-20" target="5gluB8Lm6YsT1ejz7x0Q-24" edge="1">
          <mxGeometry relative="1" as="geometry">
            <Array as="points">
              <mxPoint x="930" y="710" />
            </Array>
          </mxGeometry>
        </mxCell>
        <mxCell id="5gluB8Lm6YsT1ejz7x0Q-20" value="&lt;div&gt;finishedArray[index] = originalArray[ i ]&lt;/div&gt;&lt;div&gt;&lt;span style=&quot;background-color: initial;&quot;&gt;index = index + 1&lt;/span&gt;&lt;/div&gt;" style="rounded=0;whiteSpace=wrap;html=1;" parent="1" vertex="1">
          <mxGeometry x="565" y="680" width="240" height="60" as="geometry" />
        </mxCell>
        <mxCell id="5gluB8Lm6YsT1ejz7x0Q-28" style="edgeStyle=orthogonalEdgeStyle;rounded=0;orthogonalLoop=1;jettySize=auto;html=1;exitX=0;exitY=0.5;exitDx=0;exitDy=0;entryX=1;entryY=0.5;entryDx=0;entryDy=0;" parent="1" source="5gluB8Lm6YsT1ejz7x0Q-24" target="5gluB8Lm6YsT1ejz7x0Q-10" edge="1">
          <mxGeometry relative="1" as="geometry" />
        </mxCell>
        <mxCell id="5gluB8Lm6YsT1ejz7x0Q-24" value="i = i + 1" style="rounded=0;whiteSpace=wrap;html=1;" parent="1" vertex="1">
          <mxGeometry x="860" y="350" width="140" height="60" as="geometry" />
        </mxCell>
        <mxCell id="5gluB8Lm6YsT1ejz7x0Q-41" style="edgeStyle=orthogonalEdgeStyle;rounded=0;orthogonalLoop=1;jettySize=auto;html=1;exitX=0;exitY=0.5;exitDx=0;exitDy=0;entryX=1;entryY=0.5;entryDx=0;entryDy=0;" parent="1" source="5gluB8Lm6YsT1ejz7x0Q-38" target="5gluB8Lm6YsT1ejz7x0Q-40" edge="1">
          <mxGeometry relative="1" as="geometry" />
        </mxCell>
        <mxCell id="5gluB8Lm6YsT1ejz7x0Q-38" value="i = 0" style="rounded=0;whiteSpace=wrap;html=1;" parent="1" vertex="1">
          <mxGeometry x="390" y="680" width="120" height="60" as="geometry" />
        </mxCell>
        <mxCell id="5gluB8Lm6YsT1ejz7x0Q-47" style="edgeStyle=orthogonalEdgeStyle;rounded=0;orthogonalLoop=1;jettySize=auto;html=1;exitX=0.5;exitY=1;exitDx=0;exitDy=0;entryX=0.935;entryY=-0.033;entryDx=0;entryDy=0;entryPerimeter=0;" parent="1" source="5gluB8Lm6YsT1ejz7x0Q-40" target="5gluB8Lm6YsT1ejz7x0Q-42" edge="1">
          <mxGeometry relative="1" as="geometry" />
        </mxCell>
        <mxCell id="5gluB8Lm6YsT1ejz7x0Q-48" value="Yes" style="edgeLabel;html=1;align=center;verticalAlign=middle;resizable=0;points=[];" parent="5gluB8Lm6YsT1ejz7x0Q-47" vertex="1" connectable="0">
          <mxGeometry x="-0.2073" y="-4" relative="1" as="geometry">
            <mxPoint y="1" as="offset" />
          </mxGeometry>
        </mxCell>
        <mxCell id="5gluB8Lm6YsT1ejz7x0Q-57" style="edgeStyle=orthogonalEdgeStyle;rounded=0;orthogonalLoop=1;jettySize=auto;html=1;exitX=1;exitY=1;exitDx=0;exitDy=0;entryX=0;entryY=0.5;entryDx=0;entryDy=0;" parent="1" source="5gluB8Lm6YsT1ejz7x0Q-40" target="5gluB8Lm6YsT1ejz7x0Q-56" edge="1">
          <mxGeometry relative="1" as="geometry" />
        </mxCell>
        <mxCell id="5gluB8Lm6YsT1ejz7x0Q-58" value="No" style="edgeLabel;html=1;align=center;verticalAlign=middle;resizable=0;points=[];" parent="5gluB8Lm6YsT1ejz7x0Q-57" vertex="1" connectable="0">
          <mxGeometry x="-0.1628" y="2" relative="1" as="geometry">
            <mxPoint as="offset" />
          </mxGeometry>
        </mxCell>
        <mxCell id="5gluB8Lm6YsT1ejz7x0Q-40" value="i &amp;lt; finishedArray" style="rhombus;whiteSpace=wrap;html=1;" parent="1" vertex="1">
          <mxGeometry x="110" y="660" width="250" height="100" as="geometry" />
        </mxCell>
        <mxCell id="5gluB8Lm6YsT1ejz7x0Q-50" style="edgeStyle=orthogonalEdgeStyle;rounded=0;orthogonalLoop=1;jettySize=auto;html=1;exitX=0.25;exitY=0;exitDx=0;exitDy=0;entryX=0.5;entryY=1;entryDx=0;entryDy=0;" parent="1" source="5gluB8Lm6YsT1ejz7x0Q-42" target="5gluB8Lm6YsT1ejz7x0Q-49" edge="1">
          <mxGeometry relative="1" as="geometry" />
        </mxCell>
        <mxCell id="5gluB8Lm6YsT1ejz7x0Q-42" value="print (finishedArray[ i ])" style="rounded=0;whiteSpace=wrap;html=1;" parent="1" vertex="1">
          <mxGeometry x="20" y="830" width="230" height="60" as="geometry" />
        </mxCell>
        <mxCell id="5gluB8Lm6YsT1ejz7x0Q-51" style="edgeStyle=orthogonalEdgeStyle;rounded=0;orthogonalLoop=1;jettySize=auto;html=1;exitX=0.5;exitY=0;exitDx=0;exitDy=0;entryX=0;entryY=0.5;entryDx=0;entryDy=0;" parent="1" source="5gluB8Lm6YsT1ejz7x0Q-49" target="5gluB8Lm6YsT1ejz7x0Q-40" edge="1">
          <mxGeometry relative="1" as="geometry" />
        </mxCell>
        <mxCell id="5gluB8Lm6YsT1ejz7x0Q-49" value="i = i + 1" style="rounded=0;whiteSpace=wrap;html=1;" parent="1" vertex="1">
          <mxGeometry x="20" y="760" width="120" height="40" as="geometry" />
        </mxCell>
        <mxCell id="5gluB8Lm6YsT1ejz7x0Q-55" style="edgeStyle=orthogonalEdgeStyle;rounded=0;orthogonalLoop=1;jettySize=auto;html=1;exitX=0.5;exitY=1;exitDx=0;exitDy=0;entryX=0.5;entryY=0;entryDx=0;entryDy=0;" parent="1" source="5gluB8Lm6YsT1ejz7x0Q-54" target="X1NGosuQr4oLsFRzas8Q-5" edge="1">
          <mxGeometry relative="1" as="geometry" />
        </mxCell>
        <mxCell id="5gluB8Lm6YsT1ejz7x0Q-54" value="Начало" style="rounded=1;whiteSpace=wrap;html=1;" parent="1" vertex="1">
          <mxGeometry x="294" y="10" width="120" height="60" as="geometry" />
        </mxCell>
        <mxCell id="5gluB8Lm6YsT1ejz7x0Q-56" value="Конец" style="rounded=1;whiteSpace=wrap;html=1;" parent="1" vertex="1">
          <mxGeometry x="330" y="780" width="120" height="60" as="geometry" />
        </mxCell>
      </root>
    </mxGraphModel>
  </diagram>
</mxfile>
